HIERARCHY
ROOT Hips
{
	OFFSET 0.000000 89.005402 0.000000
	CHANNELS 6 Xposition Yposition Zposition Xrotation Yrotation Zrotation
	JOINT Spine
	{
		OFFSET 0.116900 10.681000 0.373400
		CHANNELS 3 Xrotation Yrotation Zrotation
		JOINT Spine1
		{
			OFFSET 0.000000 13.840401 0.053500
			CHANNELS 3 Xrotation Yrotation Zrotation
			JOINT Spine2
			{
				OFFSET 0.000000 14.712700 -0.366200
				CHANNELS 3 Xrotation Yrotation Zrotation
				JOINT Neck
				{
					OFFSET 0.000000 35.415497 -3.314200
					CHANNELS 3 Xrotation Yrotation Zrotation
					JOINT Head
					{
						OFFSET 0.000000 16.899200 1.218300
						CHANNELS 3 Xrotation Yrotation Zrotation
						JOINT HeadTop_End
						{
							OFFSET 0.000000 22.206207 2.192500
							CHANNELS 3 Xrotation Yrotation Zrotation
							End Site
							{
								OFFSET 0.000000 22.314178 0.000000
							}
						}
					}
				}
				JOINT LeftShoulder
				{
					OFFSET 12.896400 26.716293 -4.548400
					CHANNELS 3 Xrotation Yrotation Zrotation
					JOINT LeftArm
					{
						OFFSET 19.027000 -4.857010 -1.718400
						CHANNELS 3 Xrotation Yrotation Zrotation
						JOINT LeftForeArm
						{
							OFFSET 24.179897 0.000000 0.000000
							CHANNELS 3 Xrotation Yrotation Zrotation
							JOINT LeftHand
							{
								OFFSET 27.156403 0.000000 0.000000
								CHANNELS 3 Xrotation Yrotation Zrotation
								JOINT LeftHandIndex1
								{
									OFFSET 16.441200 0.000000 0.000000
									CHANNELS 3 Xrotation Yrotation Zrotation
									JOINT LeftHandIndex2
									{
										OFFSET 4.821899 0.000000 0.000000
										CHANNELS 3 Xrotation Yrotation Zrotation
										JOINT LeftHandIndex3
										{
											OFFSET 6.386497 0.000000 0.000000
											CHANNELS 3 Xrotation Yrotation Zrotation
											JOINT LeftHandIndex4
											{
												OFFSET 5.188988 0.000000 0.000000
												CHANNELS 3 Xrotation Yrotation Zrotation
												End Site
												{
													OFFSET -0.178703 5.185913 0.000177
												}
											}
										}
									}
								}
								JOINT LeftHandThumb1
								{
									OFFSET 6.534897 -5.032593 5.900300
									CHANNELS 3 Xrotation Yrotation Zrotation
									JOINT LeftHandThumb2
									{
										OFFSET 3.818176 -2.204422 2.204423
										CHANNELS 3 Xrotation Yrotation Zrotation
										JOINT LeftHandThumb3
										{
											OFFSET 3.252098 -1.877594 1.877601
											CHANNELS 3 Xrotation Yrotation Zrotation
											JOINT LeftHandThumb4
											{
												OFFSET 5.251778 -3.032120 3.032117
												CHANNELS 3 Xrotation Yrotation Zrotation
												End Site
												{
													OFFSET 0.000023 6.780014 0.000000
												}
											}
										}
									}
								}
							}
						}
					}
				}
				JOINT RightShoulder
				{
					OFFSET -12.896300 26.716293 -4.548400
					CHANNELS 3 Xrotation Yrotation Zrotation
					JOINT RightArm
					{
						OFFSET -19.027000 -4.857010 -1.718400
						CHANNELS 3 Xrotation Yrotation Zrotation
						JOINT RightForeArm
						{
							OFFSET -24.179897 0.000000 0.000000
							CHANNELS 3 Xrotation Yrotation Zrotation
							JOINT RightHand
							{
								OFFSET -27.156403 0.000000 0.000000
								CHANNELS 3 Xrotation Yrotation Zrotation
								JOINT RightHandThumb1
								{
									OFFSET -6.591202 -4.852203 5.988100
									CHANNELS 3 Xrotation Yrotation Zrotation
									JOINT RightHandThumb2
									{
										OFFSET -3.818176 -2.204422 2.204423
										CHANNELS 3 Xrotation Yrotation Zrotation
										JOINT RightHandThumb3
										{
											OFFSET -3.252098 -1.877594 1.877601
											CHANNELS 3 Xrotation Yrotation Zrotation
											JOINT RightHandThumb4
											{
												OFFSET -5.251778 -3.032120 3.032117
												CHANNELS 3 Xrotation Yrotation Zrotation
												End Site
												{
													OFFSET -0.000023 6.780014 0.000000
												}
											}
										}
									}
								}
								JOINT RightHandIndex1
								{
									OFFSET -16.029404 0.000000 0.000000
									CHANNELS 3 Xrotation Yrotation Zrotation
									JOINT RightHandIndex2
									{
										OFFSET -5.213303 0.000000 0.000000
										CHANNELS 3 Xrotation Yrotation Zrotation
										JOINT RightHandIndex3
										{
											OFFSET -6.386528 0.000000 0.000000
											CHANNELS 3 Xrotation Yrotation Zrotation
											JOINT RightHandIndex4
											{
												OFFSET -5.189026 0.000000 0.000000
												CHANNELS 3 Xrotation Yrotation Zrotation
												End Site
												{
													OFFSET 0.236702 5.183624 0.001972
												}
											}
										}
									}
								}
							}
						}
					}
				}
			}
		}
	}
	JOINT LeftUpLeg
	{
		OFFSET 14.073000 -7.904099 -1.463000
		CHANNELS 3 Xrotation Yrotation Zrotation
		JOINT LeftLeg
		{
			OFFSET -0.109806 -34.073280 4.093200
			CHANNELS 3 Xrotation Yrotation Zrotation
			JOINT LeftFoot
			{
				OFFSET 0.109806 -29.899420 -6.319000
				CHANNELS 3 Xrotation Yrotation Zrotation
				JOINT LeftToeBase
				{
					OFFSET 1.551100 -14.988700 20.535801
					CHANNELS 3 Xrotation Yrotation Zrotation
					JOINT LeftToe_End
					{
						OFFSET 0.221200 0.570800 13.248301
						CHANNELS 3 Xrotation Yrotation Zrotation
						End Site
						{
							OFFSET 0.000000 13.262435 0.000000
						}
					}
				}
			}
		}
	}
	JOINT RightUpLeg
	{
		OFFSET -13.839300 -7.904099 -1.463000
		CHANNELS 3 Xrotation Yrotation Zrotation
		JOINT RightLeg
		{
			OFFSET 0.109694 -34.073219 4.093300
			CHANNELS 3 Xrotation Yrotation Zrotation
			JOINT RightFoot
			{
				OFFSET -0.109694 -29.899384 -6.319200
				CHANNELS 3 Xrotation Yrotation Zrotation
				JOINT RightToeBase
				{
					OFFSET -1.551100 -14.988700 20.535801
					CHANNELS 3 Xrotation Yrotation Zrotation
					JOINT RightToe_End
					{
						OFFSET -0.221200 0.570900 13.248299
						CHANNELS 3 Xrotation Yrotation Zrotation
						End Site
						{
							OFFSET 0.000000 13.262440 0.000000
						}
					}
				}
			}
		}
	}
}
MOTION
Frames: 4
Frame Time: 0.033333
-0.202201 83.903786 1.100507 -3.470692 -0.065921 2.473461 7.350246 -3.125769 -1.950741 0.903036 -0.786820 -0.391401 0.907366 -0.781073 -0.385460 0.540648 1.887933 0.273882 -14.330826 18.862551 4.651883 0.000001 -0.000002 -0.000000 0.742834 8.952361 -13.053723 10.737606 -6.254792 -54.002614 -0.000007 -32.994264 -0.000015 3.018199 -1.471491 -4.081444 1.070413 5.654720 -31.106471 2.579640 4.853699 -55.959006 -0.000001 -0.001539 0.014992 -0.000001 0.000001 -0.000000 -3.927800 -5.157647 8.886206 21.353869 38.843030 0.044685 -0.478807 -2.449057 17.052173 0.000001 0.000001 0.000003 1.078066 -8.352864 11.371664 3.407874 18.890949 61.317299 0.000002 23.538782 0.000010 1.182685 -2.960233 -1.406686 -5.104751 0.227803 -17.972111 16.981326 -29.890885 7.725565 -6.333225 -28.159996 -4.857489 -0.000000 0.000001 -0.000001 0.271791 -3.731966 14.877276 3.775965 -4.573221 79.081269 0.158027 1.204133 -14.952695 -0.000001 -0.000001 0.000005 -10.375346 10.740856 3.785994 29.698762 -3.328986 -4.117094 -14.879582 -0.286045 1.589797 -1.618590 0.000005 0.000000 0.000000 -0.000000 -0.000000 -15.948510 -10.535891 -5.702227 34.397181 9.612318 2.691624 -14.555924 3.726316 -5.814605 -0.820114 0.000002 -0.000000 0.000000 0.000000 -0.000000 
-0.436498 82.818428 0.964499 -3.795947 -0.475859 2.763761 8.225920 -2.239526 -2.391551 0.969007 -0.527389 -0.575187 0.975927 -0.516216 -0.576476 0.340262 1.754031 0.245288 -17.321831 17.693509 5.032859 0.000000 -0.000001 -0.000000 0.743154 8.417935 -13.071980 6.658763 -5.059531 -53.415412 0.000000 -41.003251 0.000003 6.212950 -2.030572 -1.786174 1.007573 5.557656 -30.327454 2.459907 4.770905 -54.531862 0.000001 -0.001537 0.014991 -0.000000 -0.000001 -0.000001 -3.927800 -5.157644 8.886202 21.353902 38.843002 0.044622 -0.429938 -2.449569 17.019894 -0.000001 0.000001 0.000002 1.100778 -7.044928 11.916085 2.582936 19.374083 60.033005 -0.000003 32.327340 0.000011 1.539492 -2.012446 -2.387958 -5.104751 0.227804 -17.972103 17.179017 -29.207344 8.460495 -6.333428 -28.159813 -4.857101 -0.000000 0.000002 0.000001 0.272500 -3.734160 14.903254 3.826800 -4.582706 79.718157 0.158028 1.204130 -14.952691 -0.000000 -0.000002 -0.000003 -18.765738 11.876920 6.417548 43.268678 -3.000740 -5.470762 -12.749900 -1.164941 3.580361 -11.121441 0.000002 0.000002 0.000000 -0.000000 -0.000000 -17.832132 -9.792307 -6.065477 38.781975 9.019785 2.702408 -16.684358 4.371026 -6.134908 -0.806061 0.000001 -0.000000 0.000000 0.000000 0.000000 
-0.485751 81.360115 0.874069 -3.981207 -0.617595 3.043962 9.271730 -1.452462 -2.437771 1.026506 -0.314843 -0.711689 1.026744 -0.302214 -0.708349 0.094597 1.628613 0.244678 -20.143172 16.711113 4.994500 -0.000001 -0.000000 0.000000 0.749683 7.736409 -13.153694 1.839958 -4.370447 -53.272863 -0.000001 -48.555750 -0.000006 9.108461 -2.628771 2.175000 0.946711 5.460566 -29.538451 2.336599 4.680926 -53.035517 -0.000000 -0.001537 0.014999 -0.000003 -0.000001 -0.000001 -3.927802 -5.157647 8.886201 21.353991 38.842965 0.044440 -0.380237 -2.449986 16.987070 0.000000 0.000001 -0.000001 1.143047 -5.695590 12.721279 1.425155 20.362145 57.505924 0.000011 41.388484 -0.000019 1.668480 -0.715053 -3.529680 -5.104749 0.227805 -17.972106 17.368077 -28.473126 9.197545 -6.333952 -28.159372 -4.856104 0.000001 0.000001 -0.000003 0.273104 -3.736104 14.921909 3.886890 -4.593170 80.469471 0.158027 1.204131 -14.952693 -0.000001 -0.000000 -0.000000 -27.538855 12.024984 8.295596 55.326493 -1.728368 -5.933741 -8.080802 -1.831992 5.784264 -16.331843 0.000001 -0.000002 -0.000000 0.000000 0.000000 -20.233317 -8.900604 -6.628585 44.140675 8.070314 2.728475 -19.447137 5.144968 -6.131358 -0.787792 -0.000000 -0.000000 -0.000000 0.000000 0.000000 
-0.222024 79.943459 0.695696 -3.756686 -0.901006 3.044691 10.604804 -1.108975 -1.796146 1.116087 -0.259123 -0.657999 1.121227 -0.252512 -0.656993 -0.346974 1.634212 0.294979 -23.582019 16.936755 4.905425 -0.000002 -0.000001 0.000001 0.746366 7.025317 -13.144496 -2.861745 -3.064334 -54.358498 0.000014 -56.381740 0.000015 12.989945 -2.194045 6.279779 0.887982 5.363801 -28.741228 2.211149 4.584126 -51.482144 -0.000003 -0.001541 0.014996 0.000000 -0.000000 -0.000000 -3.927802 -5.157644 8.886202 21.354127 38.842958 0.044181 -0.329870 -2.450356 16.953795 0.000000 0.000001 0.000000 1.139805 -4.004942 13.614395 -0.541073 22.339713 53.384851 -0.000012 50.098871 0.000009 3.408368 0.436572 -4.568394 -5.104743 0.227806 -17.972104 17.547681 -27.697399 9.931496 -6.334682 -28.158759 -4.854681 -0.000001 -0.000000 -0.000001 0.273702 -3.738019 14.936896 3.954489 -4.603963 81.312678 0.158029 1.204132 -14.952693 0.000001 -0.000003 -0.000003 -34.410524 11.064721 8.124201 60.778083 -0.684205 -5.383759 -3.797772 -2.134673 6.596465 -16.661989 0.299678 -2.983052 0.000000 0.000001 -0.000000 -22.885700 -8.008498 -7.071164 48.767551 7.281645 2.750413 -21.631904 5.883314 -5.790666 -0.771610 -0.000000 0.000001 0.000000 -0.000000 -0.000000 
